<?xml version="1.0" encoding="UTF-8" standalone="no"?>
<!DOCTYPE svg PUBLIC "-//W3C//DTD SVG 1.1//EN" "http://www.w3.org/Graphics/SVG/1.1/DTD/svg11.dtd">
<!-- Created with Vectornator (http://vectornator.io/) -->
<svg height="100%" stroke-miterlimit="10" style="fill-rule:nonzero;clip-rule:evenodd;stroke-linecap:round;stroke-linejoin:round;" version="1.1" viewBox="0 0 400 400" width="100%" xml:space="preserve" xmlns="http://www.w3.org/2000/svg" xmlns:vectornator="http://vectornator.io" xmlns:xlink="http://www.w3.org/1999/xlink">
<defs/>
<g id="Untitled" vectornator:layerName="Untitled">
<path d="M15.7855 211.864C13.012 154.832 32.8277 107.659 73.4028 68.1436C62.7572 57.7149 49.2483 56.9753 36.0327 56.3731C36.9327 49.9177 40.6236 50.6631 43.5533 50.4215C55.6594 49.4231 67.7039 49.9167 78.9284 54.9509C84.3443 57.38 88.0315 56.2947 92.6923 53.0566C199.353-21.0454 350.389 44.3919 369.213 173.058C376.245 221.122 365.949 265.569 336.812 304.87C331.396 312.175 332.87 315.972 339.28 320.895C350.412 329.445 362.584 334.668 376.66 335.413C379.324 335.553 382.464 334.633 384.47 337.773C384.166 341.825 380.789 341.563 378.213 341.762C360.484 343.137 343.226 340.679 327.926 331.49C320.727 327.167 316.525 328.096 310.776 333.291C286.27 355.436 257.604 369.486 225.059 375.26C128.252 392.433 36.6604 329.133 18.4234 232.488C17.1952 225.98 16.6796 219.337 15.7855 211.864M129.313 160.621C125.131 151.667 120.95 142.713 116.769 133.759C111.239 176.747 107.335 219.213 103.95 261.72C102.484 280.13 102.972 280.161 116.906 286.378C117.186 286.504 117.096 287.683 117.429 289.98C98.0499 290.057 60.3151 289.859 60.3151 289.859C61.5686 287.671 62.8844 285.025 64.3056 284.737C80.5483 281.439 83.8672 278.646 85.9186 262.132C91.7572 215.129 96.4158 167.968 102.992 121.073C105.742 101.46 94.4244 90.1686 83.4898 76.1046C39.281 118.284 21.2985 168.413 30.2742 227.739C39.8865 291.271 89.5825 345.288 153.62 360.14C212.599 373.818 264.727 359.539 309.594 317.502C297.854 302.083 288.708 286.511 285.379 268.472C282.171 251.091 280.017 233.512 277.533 216.001C273.484 187.455 269.543 158.894 265.557 130.34C240.8 184.66 214.744 237.893 193.403 293.512C191.787 292.695 190.545 292.494 190.247 291.855C170.082 248.567 149.992 205.245 129.313 160.621M274.33 55.6925C211.592 19.7694 133.474 34.8618 98.651 66.2288C112.574 78.625 122.061 94.0723 129.717 110.904C149.493 154.383 169.571 197.725 189.603 241.088C191.086 244.296 192.054 248.091 196.661 250.417C222.696 192.327 248.485 134.782 274.867 75.9153C279.511 81.4103 279.863 85.203 280.446 88.9067C289.376 145.653 298.09 202.435 307.369 259.124C309.746 273.644 313.684 287.957 322.461 300.636C375.862 242.629 377.242 115.856 274.33 55.6925Z" fill="#000000" fill-rule="nonzero" opacity="1" stroke="none" vectornator:layerName="path"/>
</g>
</svg>
